<!--?xml version="1.0" standalone="no"?-->
              <svg id="sw-js-blob-svg" viewBox="0 0 100 100" xmlns="http://www.w3.org/2000/svg" version="1.1">
                    <defs> 
                        <linearGradient id="sw-gradient" x1="0" x2="1" y1="1" y2="0">
                            <stop id="stop1" stop-color="rgba(228.372, 185.946, 138.686, 1)" offset="0%"></stop>
                            <stop id="stop2" stop-color="rgba(232.926, 210.34, 158.548, 1)" offset="100%"></stop>
                        </linearGradient>
                    </defs>
                <path fill="url(#sw-gradient)" d="M21.5,-24.9C27.1,-20.9,30.4,-13.4,32.8,-5C35.3,3.5,36.9,12.8,33.4,19.7C29.9,26.5,21.4,30.8,12.9,32.7C4.5,34.6,-3.9,34.1,-10.6,30.9C-17.4,27.7,-22.6,21.9,-27.3,15.1C-32.1,8.3,-36.5,0.5,-36.3,-7.4C-36.1,-15.4,-31.4,-23.5,-24.6,-27.3C-17.7,-31,-8.9,-30.3,-0.5,-29.7C7.9,-29.2,15.9,-28.8,21.5,-24.9Z" width="100%" height="100%" transform="translate(50 50)" stroke-width="0" style="transition: all 0.3s ease 0s;"></path>
              </svg>