<!--?xml version="1.0" standalone="no"?-->
              <svg id="sw-js-blob-svg" viewBox="0 0 100 100" xmlns="http://www.w3.org/2000/svg" version="1.1">
                    <defs> 
                        <linearGradient id="sw-gradient" x1="0" x2="1" y1="1" y2="0">
                            <stop id="stop1" stop-color="rgba(87.212, 52.974, 2.735, 1)" offset="0%"></stop>
                            <stop id="stop2" stop-color="rgba(109.979, 63.74, 4.691, 1)" offset="100%"></stop>
                        </linearGradient>
                    </defs>
                <path fill="url(#sw-gradient)" d="M21.8,-26C29.4,-19.7,37.2,-13.8,40.4,-5.7C43.5,2.4,41.9,12.8,37,21.4C32.1,29.9,23.9,36.6,14.9,39.2C5.8,41.8,-4.1,40.2,-12.9,36.5C-21.6,32.8,-29.2,27,-32.5,19.6C-35.9,12.1,-35.2,3,-33.8,-6.2C-32.5,-15.4,-30.6,-24.8,-24.9,-31.4C-19.1,-38.1,-9.6,-41.9,-1.2,-40.5C7.2,-39,14.3,-32.3,21.8,-26Z" width="100%" height="100%" transform="translate(50 50)" stroke-width="0" style="transition: all 0.3s ease 0s;" stroke="url(#sw-gradient)"></path>
              </svg>